<?xml version="1.0" standalone="no"?>
<!DOCTYPE svg PUBLIC "-//W3C//DTD SVG 20010904//EN"
 "http://www.w3.org/TR/2001/REC-SVG-20010904/DTD/svg10.dtd">
<svg version="1.0" xmlns="http://www.w3.org/2000/svg"
 width="250.000000pt" height="201.000000pt" viewBox="0 0 250.000000 201.000000"
 preserveAspectRatio="xMidYMid meet">

<g transform="translate(0.000000,201.000000) scale(0.100000,-0.100000)"
fill="#000000" stroke="none">
<path d="M1205 1986 c-158 -36 -326 -130 -440 -245 l-59 -61 64 0 c63 1 67 2
125 50 77 64 189 123 291 152 112 32 296 32 407 0 476 -136 710 -659 490
-1096 -104 -206 -290 -355 -514 -410 -86 -21 -268 -21 -357 0 -99 24 -257 104
-324 164 l-57 51 -63 -3 -63 -3 72 -71 c267 -266 674 -329 1010 -158 83 43 87
44 106 27 10 -10 92 -98 180 -196 89 -97 165 -176 169 -175 15 6 248 221 248
230 0 5 -83 99 -184 209 l-184 200 43 84 c70 138 90 224 90 395 0 167 -14 236
-75 367 -106 229 -290 391 -530 469 -74 23 -105 27 -235 30 -102 3 -169 -1
-210 -10z"/>
<path d="M130 1535 c-25 -8 -60 -30 -78 -48 -68 -70 -67 -239 1 -310 18 -19
75 -59 127 -90 121 -71 137 -87 145 -139 9 -62 -7 -98 -44 -98 -40 0 -51 23
-51 104 l0 66 -110 0 -110 0 0 -62 c0 -124 31 -178 124 -219 40 -18 71 -23
141 -23 112 -1 174 16 228 64 l42 38 0 118 c0 101 -3 124 -20 152 -21 35 -92
88 -195 145 -90 49 -102 64 -98 122 3 55 25 78 56 59 12 -8 18 -27 20 -68 l3
-56 109 0 110 0 0 66 c0 91 -20 128 -84 162 -45 23 -65 26 -161 29 -75 2 -124
-2 -155 -12z"/>
<path d="M1330 1541 c-80 -26 -144 -86 -157 -148 -4 -21 -8 -146 -8 -278 0
-237 0 -240 25 -285 47 -83 166 -130 295 -115 117 13 201 70 225 152 8 25 10
124 8 290 l-3 251 -30 43 c-48 68 -107 93 -229 96 -56 1 -112 -1 -126 -6z
m138 -133 c9 -9 12 -82 12 -269 0 -142 -3 -264 -6 -273 -3 -9 -17 -16 -30 -16
-41 0 -45 33 -42 303 2 207 5 249 18 257 20 13 34 12 48 -2z"/>
<path d="M650 1135 l0 -405 215 0 215 0 0 80 0 80 -95 0 -95 0 0 90 0 90 80 0
80 0 0 75 0 75 -80 0 -80 0 0 80 0 80 85 0 85 0 0 80 0 80 -205 0 -205 0 0
-405z"/>
</g>
</svg>
